<svg xmlns="http://www.w3.org/2000/svg" width="24" height="24" fill="none" viewBox="0 0 24 24" id="giphy"><path fill="#ECEFF1" d="M5 1.25C4.58579 1.25 4.25 1.58579 4.25 2V22C4.25 22.4142 4.58579 22.75 5 22.75H19C19.4142 22.75 19.75 22.4142 19.75 22V9C19.75 8.58579 19.4142 8.25 19 8.25H12.75V2C12.75 1.58579 12.4142 1.25 12 1.25H5Z"></path><path fill="#A071FF" fill-rule="evenodd" d="M19 8.25C19.4142 8.25 19.75 8.58579 19.75 9V22C19.75 22.4142 19.4142 22.75 19 22.75C18.5858 22.75 18.25 22.4142 18.25 22V9C18.25 8.58579 18.5858 8.25 19 8.25Z" clip-rule="evenodd"></path><path fill="#8BC94D" fill-rule="evenodd" d="M5 1.25C5.41421 1.25 5.75 1.58579 5.75 2V22C5.75 22.4142 5.41421 22.75 5 22.75C4.58579 22.75 4.25 22.4142 4.25 22V2C4.25 1.58579 4.58579 1.25 5 1.25Z" clip-rule="evenodd"></path><path fill="#9065E5" fill-rule="evenodd" d="M19.75 12V22C19.75 22.4142 19.4142 22.75 19 22.75C18.5858 22.75 18.25 22.4142 18.25 22V12H19.75Z" clip-rule="evenodd"></path><path fill="#7DB545" fill-rule="evenodd" d="M5.75 12V22C5.75 22.4142 5.41421 22.75 5 22.75C4.58579 22.75 4.25 22.4142 4.25 22V12H5.75Z" clip-rule="evenodd"></path><path fill="#FFC44D" fill-rule="evenodd" d="M4.25 2C4.25 1.58579 4.58579 1.25 5 1.25H12C12.4142 1.25 12.75 1.58579 12.75 2V8.25H19C19.4142 8.25 19.75 8.58579 19.75 9C19.75 9.41421 19.4142 9.75 19 9.75H12C11.5858 9.75 11.25 9.41421 11.25 9V2.75H5C4.58579 2.75 4.25 2.41421 4.25 2Z" clip-rule="evenodd"></path><path fill="#EE4D4D" d="M12 1.25C11.5858 1.25 11.25 1.58579 11.25 2V9C11.25 9.41421 11.5858 9.75 12 9.75H19C19.4142 9.75 19.75 9.41421 19.75 9V6C19.75 5.58579 19.4142 5.25 19 5.25H17.75V4C17.75 3.58579 17.4142 3.25 17 3.25H15.75V2C15.75 1.58579 15.4142 1.25 15 1.25H12Z"></path><path fill="#45B0E5" fill-rule="evenodd" d="M4.25 22C4.25 21.5858 4.58579 21.25 5 21.25H19C19.4142 21.25 19.75 21.5858 19.75 22C19.75 22.4142 19.4142 22.75 19 22.75H5C4.58579 22.75 4.25 22.4142 4.25 22Z" clip-rule="evenodd"></path><path fill="#D64545" fill-rule="evenodd" d="M15.5 1.44097V9.75H12C11.5858 9.75 11.25 9.41421 11.25 9V2C11.25 1.58579 11.5858 1.25 12 1.25H15C15.1921 1.25 15.3673 1.32221 15.5 1.44097Z" clip-rule="evenodd"></path></svg>